<?xml version="1.0" encoding="UTF-8"?>
<svg id="Ebene_1" xmlns="http://www.w3.org/2000/svg" version="1.1" viewBox="0 0 622.58 622.58">
  <!-- Generator: Adobe Illustrator 30.1.0, SVG Export Plug-In . SVG Version: 2.1.1 Build 136)  -->
  <g>
    <path d="M112.67,578.42c-19.69-4.4-33.67-17.95-44.11-33.77-.6-.91-1.23-3.42-1.29-4.45-.08-1.29,2.78-3.58,4.18-3.66l64.84-3.56,148.74-13.17.48-53.69-40.84,3.28c-10.04-1.33-19.14-3.24-28.04-8.13-7.24-3.98-16.67-15-12.98-22.81.8-1.69,4.1-3.37,6.51-3.68l76.04-9.77.44-45.71c-27.62,2.15-61.47,7.85-84.42-11.2-24.35,29.38-55.94,52.72-90.79,68.14-.95.42-3.74.34-4.58.09-1.11-.33-.86-3.69.08-4.99,29.59-40.84,45.3-62.21,61.14-111.69,7.39-23.07-2.65-36.47,13.04-35,21.47,2.01,41.46,10.94,57.37,25.02,2.62,2.31,5.08,8.38,4.52,11.34-1.37,7.3-11.69,8.16-18.76,22.04l60.84-4.02-4.36-33.33c-1.56-11.94-14.03-20.97-9.8-27.59,1.63-2.55,6.18-5.5,9.52-5.73,25.46-1.74,50.05,6.19,70.7,20.76,2.97,2.1,6.61,8.16,6,11.3-4.58,8.03-8.47,15.9-9.74,25.8l69.2-15.57c15.15-3.41,32.32,3.63,40.65,16.43,5.23,8.03-.49,23.93-10.21,25.85-35.41,7.01-69.4,10.99-104.95,15.77l-1.81,43.71,37.15-6.43c15.8-2.73,31.43-2.75,46.69,2.01,12.64,3.94,22.01,16,19.87,29.06-.36,2.19-4.99,4.48-7.19,5.46l-97.75,14.09-2.41,53.68,149.52-18.46c34-4.2,88.47,18.35,81.2,55.92-1.63,8.43-8.32,14.71-17.69,14.02-20.54-1.52-41.16-2.21-61.48-5.73-23.35-4.05-44.72-4.91-68.71-4.66-92.23.95-188.1,5.69-279.08,21.84-8.63,1.53-18.54,3.22-27.76,1.16Z"/>
    <g>
      <path d="M249.8,269.79c-4.26,9.02-13.65,12.92-22.77,8.14s-15.72-13.18-19.13-22.61c-8.03-22.2-13.27-43.93-16.68-67.3-3.77-25.92-13.51-64.49-33.58-82.42-7.6-25.25,51.97-6.33,61.38.53,57.45-5.27,113.9-12.71,170.83-24.05,9.05-1.8,19.1-6.79,28.16-5.24,27.1,4.62,52.45,16.75,73.97,33.33,2.33,1.79,4.61,6.28,5,8.56,1.41,8.26-15.89,13.62-23.19,32.87-14.25,37.62-30.05,73.4-48.86,108.99-11.12,7.31-24.41,11.07-37.25,7.94-3.05-.74-6.58-6.78-8.58-9.89-46.56.52-81.67,7.15-129.29,11.16ZM244.39,202.58l6.31,35.05,52.87-6.87c18.51-2.4,36.3-6.1,54.17-10.85,10.86-2.88,20.19-.74,29.86,5.85,6.61-22,10.81-42.87,14.78-64.79,2.22-12.25,4.45-23.99,2.46-36.53-3.79-3.87-12.37-5.22-18.32-4.6l-154.64,16.21,6.45,37.2c29.87-5.08,57.56-10.48,86.41-17.08,13.78-3.15,27.41-3.13,40.7,1.54,10.96,3.85,19.62,15.78,14.68,27.09-35.49,7.24-71.12,11.64-106.46,15.8-10.13,1.2-18.5,1.68-29.29,1.96Z"/>
    </g>
  </g>
</svg>